<?xml version="1.0" standalone="no"?>
<!DOCTYPE svg PUBLIC "-//W3C//DTD SVG 20010904//EN"
 "http://www.w3.org/TR/2001/REC-SVG-20010904/DTD/svg10.dtd">
<svg version="1.0" xmlns="http://www.w3.org/2000/svg"
 width="1000.000000pt" height="600.000000pt" viewBox="0 0 1000.000000 600.000000"
 preserveAspectRatio="xMidYMid meet">

<g transform="translate(0.000000,600.000000) scale(0.100000,-0.100000)"
fill="#000000" stroke="none">
<path d="M3016 4882 c-8 -13 -776 -2065 -776 -2074 0 -4 110 -8 244 -8 l244 0
24 63 c13 34 89 236 169 450 79 213 145 384 146 380 2 -5 -10 -204 -26 -443
-16 -239 -26 -438 -22 -443 4 -4 124 -6 267 -5 l259 3 382 1020 c211 561 386
1030 389 1043 l6 22 -245 0 -245 0 -26 -67 c-14 -38 -91 -241 -170 -453 -130
-346 -145 -380 -145 -335 -1 28 10 219 24 425 14 206 25 387 25 403 l0 27
-259 0 c-143 0 -262 -4 -265 -8z"/>
<path d="M4386 4882 c-6 -10 -767 -2041 -774 -2064 -4 -17 12 -18 241 -18
l246 0 19 53 c344 916 762 2031 762 2034 0 7 -489 2 -494 -5z"/>
<path d="M4955 4873 c-34 -86 -765 -2059 -765 -2065 0 -4 110 -8 244 -8 l245
0 29 78 c17 42 87 228 157 412 69 183 130 341 134 349 5 8 12 -91 15 -225 4
-131 10 -322 14 -424 l7 -185 332 -5 333 -5 -808 -219 c-444 -120 -1012 -275
-1262 -343 -664 -181 -645 -177 -835 -177 -193 -1 -288 19 -435 91 -80 38
-108 59 -181 132 -135 137 -187 261 -196 476 -8 196 29 372 132 620 l54 130
-45 -50 c-65 -72 -224 -278 -335 -433 -280 -391 -477 -777 -560 -1097 -20 -76
-23 -116 -24 -260 0 -154 2 -177 24 -244 76 -229 316 -427 617 -508 92 -25
114 -27 299 -27 173 -1 215 2 310 23 247 52 474 134 1035 373 1246 532 5335
2306 5371 2330 20 14 22 19 9 27 -8 6 -26 7 -40 4 -22 -5 -1144 -309 -1897
-514 -161 -43 -295 -79 -298 -79 -3 0 6 30 20 66 14 37 25 73 25 80 0 12 -49
14 -280 14 -154 0 -280 4 -280 9 0 4 32 93 71 197 39 104 80 213 91 241 l19
53 237 2 237 3 72 190 71 190 -234 3 c-228 2 -235 3 -229 22 3 10 39 108 79
217 l74 198 250 3 c226 2 251 4 257 20 3 9 31 80 60 157 29 77 56 148 60 158
7 16 -33 17 -746 17 l-754 -1 -245 -298 c-135 -165 -246 -296 -248 -292 -2 6
109 304 213 574 7 16 -9 17 -243 17 -229 0 -250 -1 -257 -17z m930 -955 c-186
-497 -342 -914 -348 -928 -5 -14 -11 -20 -13 -15 -2 6 -10 244 -19 530 -15
495 -14 521 2 542 40 49 708 780 712 777 2 -2 -149 -409 -334 -906z"/>
</g>
</svg>
